<svg id="visual" viewBox="0 0 900 600" width="900" height="600" xmlns="http://www.w3.org/2000/svg" xmlns:xlink="http://www.w3.org/1999/xlink" version="1.1"><rect x="0" y="0" width="900" height="600" fill="#f3eeee"></rect><defs><linearGradient id="grad1_0" x1="33.3%" y1="0%" x2="100%" y2="100%"><stop offset="20%" stop-color="#f3eeee" stop-opacity="1"></stop><stop offset="80%" stop-color="#f3eeee" stop-opacity="1"></stop></linearGradient></defs><defs><linearGradient id="grad2_0" x1="0%" y1="0%" x2="66.7%" y2="100%"><stop offset="20%" stop-color="#f3eeee" stop-opacity="1"></stop><stop offset="80%" stop-color="#f3eeee" stop-opacity="1"></stop></linearGradient></defs><g transform="translate(900, 0)"><path d="M0 324.5C-48.7 302.6 -97.3 280.6 -148 256.3C-198.7 232 -251.3 205.4 -281 162.2C-310.8 119.1 -317.6 59.6 -324.5 0L0 0Z" fill="#7ebaeb"></path></g><g transform="translate(0, 600)"><path d="M0 -324.5C50 -304.9 100 -285.3 150.5 -260.7C201 -236.1 251.9 -206.5 281 -162.2C310.1 -118 317.3 -59 324.5 0L0 0Z" fill="#7ebaeb"></path></g></svg>