<svg id="visual" viewBox="0 0 900 600" width="900" height="600" xmlns="http://www.w3.org/2000/svg" xmlns:xlink="http://www.w3.org/1999/xlink" version="1.1"><rect x="0" y="0" width="900" height="600" fill="#FFFFFF"></rect><defs><linearGradient id="grad1_0" x1="33.3%" y1="0%" x2="100%" y2="100%"><stop offset="20%" stop-color="#ffffff" stop-opacity="1"></stop><stop offset="80%" stop-color="#ffffff" stop-opacity="1"></stop></linearGradient></defs><defs><linearGradient id="grad2_0" x1="0%" y1="0%" x2="66.7%" y2="100%"><stop offset="20%" stop-color="#ffffff" stop-opacity="1"></stop><stop offset="80%" stop-color="#ffffff" stop-opacity="1"></stop></linearGradient></defs><g transform="translate(900, 0)"><path d="M0 243.4C-50.1 241.4 -100.2 239.3 -121.7 210.8C-143.2 182.2 -136 127.1 -151.6 87.5C-167.1 47.9 -205.2 24 -243.4 0L0 0Z" fill="#4DBCEE"></path></g><g transform="translate(0, 600)"><path d="M0 -243.4C23.2 -203.8 46.3 -164.3 86 -149C125.7 -133.6 181.8 -142.5 210.8 -121.7C239.7 -100.9 241.6 -50.4 243.4 0L0 0Z" fill="#4DBCEE"></path></g></svg>