<?xml version="1.0" standalone="no"?>
<svg xmlns:xlink="http://www.w3.org/1999/xlink" id="wave" style="transform:rotate(180deg); transition: 0.3s" viewBox="0 0 1440 490" version="1.1" xmlns="http://www.w3.org/2000/svg"><defs><linearGradient id="sw-gradient-0" x1="0" x2="0" y1="1" y2="0"><stop stop-color="rgba(255, 255, 255, 0.92)" offset="0%"/><stop stop-color="rgba(11, 155.816, 255, 1)" offset="100%"/></linearGradient></defs><path style="transform:translate(0, 0px); opacity:1" fill="url(#sw-gradient-0)" d="M0,49L120,49C240,49,480,49,720,106.2C960,163,1200,278,1440,334.8C1680,392,1920,392,2160,343C2400,294,2640,196,2880,155.2C3120,114,3360,131,3600,155.2C3840,180,4080,212,4320,245C4560,278,4800,310,5040,310.3C5280,310,5520,278,5760,285.8C6000,294,6240,343,6480,302.2C6720,261,6960,131,7200,65.3C7440,0,7680,0,7920,16.3C8160,33,8400,65,8640,73.5C8880,82,9120,65,9360,89.8C9600,114,9840,180,10080,171.5C10320,163,10560,82,10800,98C11040,114,11280,229,11520,294C11760,359,12000,376,12240,326.7C12480,278,12720,163,12960,138.8C13200,114,13440,180,13680,179.7C13920,180,14160,114,14400,98C14640,82,14880,114,15120,106.2C15360,98,15600,49,15840,98C16080,147,16320,294,16560,326.7C16800,359,17040,278,17160,236.8L17280,196L17280,490L17160,490C17040,490,16800,490,16560,490C16320,490,16080,490,15840,490C15600,490,15360,490,15120,490C14880,490,14640,490,14400,490C14160,490,13920,490,13680,490C13440,490,13200,490,12960,490C12720,490,12480,490,12240,490C12000,490,11760,490,11520,490C11280,490,11040,490,10800,490C10560,490,10320,490,10080,490C9840,490,9600,490,9360,490C9120,490,8880,490,8640,490C8400,490,8160,490,7920,490C7680,490,7440,490,7200,490C6960,490,6720,490,6480,490C6240,490,6000,490,5760,490C5520,490,5280,490,5040,490C4800,490,4560,490,4320,490C4080,490,3840,490,3600,490C3360,490,3120,490,2880,490C2640,490,2400,490,2160,490C1920,490,1680,490,1440,490C1200,490,960,490,720,490C480,490,240,490,120,490L0,490Z"/><defs><linearGradient id="sw-gradient-1" x1="0" x2="0" y1="1" y2="0"><stop stop-color="rgba(62, 193.95, 243, 1)" offset="0%"/><stop stop-color="rgba(135.617, 212.496, 246.213, 1)" offset="100%"/></linearGradient></defs><path style="transform:translate(0, 50px); opacity:0.9" fill="url(#sw-gradient-1)" d="M0,196L120,163.3C240,131,480,65,720,32.7C960,0,1200,0,1440,40.8C1680,82,1920,163,2160,163.3C2400,163,2640,82,2880,81.7C3120,82,3360,163,3600,171.5C3840,180,4080,114,4320,98C4560,82,4800,114,5040,138.8C5280,163,5520,180,5760,187.8C6000,196,6240,196,6480,171.5C6720,147,6960,98,7200,65.3C7440,33,7680,16,7920,65.3C8160,114,8400,229,8640,277.7C8880,327,9120,310,9360,310.3C9600,310,9840,327,10080,334.8C10320,343,10560,343,10800,294C11040,245,11280,147,11520,98C11760,49,12000,49,12240,65.3C12480,82,12720,114,12960,163.3C13200,212,13440,278,13680,302.2C13920,327,14160,310,14400,326.7C14640,343,14880,392,15120,351.2C15360,310,15600,180,15840,155.2C16080,131,16320,212,16560,212.3C16800,212,17040,131,17160,89.8L17280,49L17280,490L17160,490C17040,490,16800,490,16560,490C16320,490,16080,490,15840,490C15600,490,15360,490,15120,490C14880,490,14640,490,14400,490C14160,490,13920,490,13680,490C13440,490,13200,490,12960,490C12720,490,12480,490,12240,490C12000,490,11760,490,11520,490C11280,490,11040,490,10800,490C10560,490,10320,490,10080,490C9840,490,9600,490,9360,490C9120,490,8880,490,8640,490C8400,490,8160,490,7920,490C7680,490,7440,490,7200,490C6960,490,6720,490,6480,490C6240,490,6000,490,5760,490C5520,490,5280,490,5040,490C4800,490,4560,490,4320,490C4080,490,3840,490,3600,490C3360,490,3120,490,2880,490C2640,490,2400,490,2160,490C1920,490,1680,490,1440,490C1200,490,960,490,720,490C480,490,240,490,120,490L0,490Z"/></svg>